<svg width="600" height="400" viewBox="0 0 600 400" fill="none" xmlns="http://www.w3.org/2000/svg">
  <rect width="600" height="400" fill="#9F1239"/>
  <path d="M300 125C336.944 125 367.188 155.244 367.188 192.188C367.188 229.131 336.944 259.375 300 259.375C263.056 259.375 232.812 229.131 232.812 192.188C232.812 155.244 263.056 125 300 125Z" fill="#FB7185" fill-opacity="0.3"/>
  <path d="M300 150C300 150 275 175 250 175C225 175 200 150 200 150C200 150 225 225 250 250C275 275 300 275 300 275C300 275 325 275 350 250C375 225 400 150 400 150C400 150 375 175 350 175C325 175 300 150 300 150Z" fill="#FDA4AF" fill-opacity="0.5"/>
  <circle cx="250" cy="175" r="10" fill="#FDA4AF"/>
  <circle cx="350" cy="175" r="10" fill="#FDA4AF"/>
  <circle cx="300" cy="200" r="50" stroke="#FECDD3" stroke-width="2" stroke-dasharray="10 5"/>
</svg>
