<svg width="600" height="400" viewBox="0 0 600 400" fill="none" xmlns="http://www.w3.org/2000/svg">
  <rect width="600" height="400" fill="#1E3A8A"/>
  <path d="M300 100C300 100 350 150 400 150C450 150 500 100 500 100V300C500 300 450 350 400 350C350 350 300 300 300 300V100Z" fill="#3B82F6" fill-opacity="0.3"/>
  <path d="M300 100C300 100 250 150 200 150C150 150 100 100 100 100V300C100 300 150 350 200 350C250 350 300 300 300 300V100Z" fill="#3B82F6" fill-opacity="0.3"/>
  <path d="M300 150L350 200L300 250L250 200L300 150Z" fill="#60A5FA" fill-opacity="0.5"/>
  <circle cx="300" cy="200" r="50" stroke="#DBEAFE" stroke-width="2"/>
  <circle cx="300" cy="200" r="75" stroke="#DBEAFE" stroke-width="2" stroke-dasharray="10 5"/>
</svg>
