<svg width="600" height="400" viewBox="0 0 600 400" fill="none" xmlns="http://www.w3.org/2000/svg">
  <rect width="600" height="400" fill="#5B21B6"/>
  <path d="M300 100C355.228 100 400 144.772 400 200C400 255.228 355.228 300 300 300C244.772 300 200 255.228 200 200C200 144.772 244.772 100 300 100Z" fill="#8B5CF6" fill-opacity="0.3"/>
  <path d="M300 150L325 200H275L300 150Z" fill="#A78BFA" fill-opacity="0.5"/>
  <path d="M250 200L275 250H225L250 200Z" fill="#A78BFA" fill-opacity="0.5"/>
  <path d="M350 200L375 250H325L350 200Z" fill="#A78BFA" fill-opacity="0.5"/>
  <circle cx="300" cy="200" r="25" stroke="#DDD6FE" stroke-width="2"/>
  <circle cx="300" cy="200" r="50" stroke="#DDD6FE" stroke-width="2" stroke-dasharray="10 5"/>
  <circle cx="300" cy="200" r="75" stroke="#DDD6FE" stroke-width="1" stroke-dasharray="5 5"/>
</svg>
